:version 1.10
:name ASF
:units
  mass 1
  length 1
  angle deg
:documentation
  ASF file generated by Kaydara
:root
  axis xyz
  order  tx ty tz rx ry rz
  position 0 0 0
  orientation 0 0 0
:bonedata
  begin
    id 1
    name LeftUpLegDummy
    direction 1 -2.30186e-007 -8.31532e-007
    length 2.93387
    axis 0 0 0 xyz
  end
  begin
    id 2
    name LeftUpLeg
    direction -1.82929e-007 -1 -1.48925e-009
    length 17.3336
    axis -3.48766 0.00143442 -0.000521554 xyz
    dof rx ry rz
  end
  begin
    id 3
    name LeftLeg
    direction -1.82929e-007 -1 -5.23717e-011
    length 14.9995
    axis 3.68178 -0.00654042 -0.000282425 xyz
    dof rx ry rz
  end
  begin
    id 4
    name LeftFoot
    direction 8.31532e-007 -4.54534e-011 1
    length 6.74421
    axis 1.87234e-006 4.66016e-005 -5.96866e-006 xyz
    dof rx ry rz
  end
  begin
    id 5
    name LeftToes
    direction 0.00818058 -0.00485161 0.999955
    length 3.85048
    axis 1.06247e-005 4.65869e-005 -5.96999e-006 xyz
    dof rx ry rz
  end
  begin
    id 6
    name SpineDummy
    direction -5.8607e-008 0.943407 -0.331637
    length 5.93572
    axis 0 0 0 xyz
  end
  begin
    id 7
    name Spine
    direction -1.04988e-007 0.999988 0.00495137
    length 10.1015
    axis -0.001389 0.000121417 6.61666e-006 xyz
    dof rx ry rz
  end
  begin
    id 8
    name Spine1
    direction 0 0 0
    length 0
    axis -0.001389 0.00012144 6.56766e-006 xyz
    dof rx ry rz
  end
  begin
    id 9
    name RightShoulderDummy
    direction -0.98348 0.17941 -0.0240696
    length 3.59882
    axis -0.001389 0.00012144 6.56766e-006 xyz
  end
  begin
    id 10
    name RightShoulder
    direction -0.978693 0.204882 0.0135597
    length 2.70001
    axis 0.215806 0.000203631 -0.00679732 xyz
    dof rx ry rz
  end
  begin
    id 11
    name RightArm
    direction -1 3.85509e-006 8.31394e-007
    length 10.2459
    axis -23.2009 -0.134239 -0.964098 xyz
    dof rx ry rz
  end
  begin
    id 12
    name RightForeArm
    direction -1 3.85569e-006 8.3129e-007
    length 8.16799
    axis -9.92322 0.0658061 0.17887 xyz
    dof rx ry rz
  end
  begin
    id 13
    name RightHand
    direction -0.992843 -0.0414604 0.112003
    length 5.28593
    axis -0.00960638 0.00330669 -0.185225 xyz
    dof rx ry rz
  end
  begin
    id 14
    name LeftShoulder1Dummy
    direction 0.983523 0.179172 -0.0240748
    length 3.59866
    axis -0.001389 0.00012144 6.56766e-006 xyz
  end
  begin
    id 15
    name LeftShoulder1
    direction 0.978627 0.205195 0.0135605
    length 2.70019
    axis -0.001389 0.00012144 6.57583e-006 xyz
    dof rx ry rz
  end
  begin
    id 16
    name LeftArm
    direction 1 3.51895e-006 -8.60188e-007
    length 10.2459
    axis -23.1894 0.134785 0.967513 xyz
    dof rx ry rz
  end
  begin
    id 17
    name LeftForeArm
    direction 1 3.51921e-006 -7.32029e-007
    length 8.16799
    axis -9.91835 -0.0656957 -0.177789 xyz
    dof rx ry rz
  end
  begin
    id 18
    name LeftHand
    direction 0.992938 -0.0411636 0.11126
    length 5.32135
    axis -0.00960237 -0.00340661 0.185177 xyz
    dof rx ry rz
  end
  begin
    id 19
    name HEadDummy
    direction 1.01974e-006 0.999861 -0.016675
    length 2.99946
    axis -0.001389 0.00012144 6.56766e-006 xyz
  end
  begin
    id 20
    name HEad
    direction -0.0222689 0.980941 0.193023
    length 5.12695
    axis -0.001389 0.00012144 6.56766e-006 xyz
    dof rx ry rz
  end
  begin
    id 21
    name RightUpLegDummy
    direction -1 2.30186e-007 8.31532e-007
    length 2.93387
    axis 0 0 0 xyz
  end
  begin
    id 22
    name RightUpLeg
    direction -1.82966e-007 -1 1.56832e-007
    length 17.3336
    axis -3.4909 -0.000906625 0.00028951 xyz
    dof rx ry rz
  end
  begin
    id 23
    name RightLeg
    direction -1.82786e-007 -1 -1.80317e-007
    length 14.9995
    axis 3.68513 0.0193739 -0.131021 xyz
    dof rx ry rz
  end
  begin
    id 24
    name RightFoot
    direction 8.31721e-007 -4.63324e-011 1
    length 6.74421
    axis 4.81691e-005 -0.120479 -0.188785 xyz
    dof rx ry rz
  end
  begin
    id 25
    name RightToes
    direction 0.00124746 -0.014064 0.9999
    length 3.85082
    axis 0.000481921 0.542163 -0.142575 xyz
    dof rx ry rz
  end
:hierarchy
  begin
    root LeftUpLegDummy SpineDummy RightUpLegDummy
    LeftUpLegDummy LeftUpLeg
    LeftUpLeg LeftLeg
    LeftLeg LeftFoot
    LeftFoot LeftToes
    SpineDummy Spine
    Spine Spine1
    Spine1 RightShoulderDummy LeftShoulder1Dummy HEadDummy
    RightShoulderDummy RightShoulder
    RightShoulder RightArm
    RightArm RightForeArm
    RightForeArm RightHand
    LeftShoulder1Dummy LeftShoulder1
    LeftShoulder1 LeftArm
    LeftArm LeftForeArm
    LeftForeArm LeftHand
    HEadDummy HEad
    RightUpLegDummy RightUpLeg
    RightUpLeg RightLeg
    RightLeg RightFoot
    RightFoot RightToes
  end

:SAMPLES-PER-SECOND 30
:FULLY-SPECIFIED
:DEGREES
157
root  3.82406 34.4279 30.1237 5.8761 7.97579 -0.257746
LeftUpLeg  -10.5045 6.75788 -0.352278
LeftLeg  13.6974 1.87726 0.329885
LeftFoot  -1.77071 -0.00950651 -0.0316153
LeftToes  -11.3758 2.60077e-006 -1.42232e-007
Spine  1.63019 3.43443 -4.65681
Spine1  2.92483 6.8631 -8.74344
RightShoulder  0.0038496 5.18898 1.62338
RightArm  -55.8181 25.2177 45.615
RightForeArm  47.8896 76.967 50.206
RightHand  3.4844 -13.9668 -27.5087
LeftShoulder1  0.0710948 0.0741259 -8.34974
LeftArm  -28.0278 14.0384 -61.5156
LeftForeArm  32.8439 -15.795 -2.85053
LeftHand  0.0781569 2.39529 3.66518
HEad  -9.48022 -31.0665 6.04642
RightUpLeg  -10.5241 -4.74812 -6.76534
RightLeg  12.5567 5.81209 0.907344
RightFoot  3.27775 -0.000298294 0.395721
RightToes  -37.3299 -0.193931 -0.298677
158
root  3.85106 34.4281 30.1279 5.81897 8.0342 -0.232442
LeftUpLeg  -10.4308 6.69955 -0.415739
LeftLeg  13.6863 1.89287 0.332264
LeftFoot  -1.78614 -0.00944888 -0.030667
LeftToes  -11.2907 2.60077e-006 -1.42232e-007
Spine  1.63477 3.49846 -4.63904
Spine1  2.91797 6.99774 -8.71637
RightShoulder  0.00418791 5.05184 1.58194
RightArm  -55.2385 26.3335 45.4336
RightForeArm  45.547 76.2571 46.641
RightHand  3.27915 -12.2505 -29.4845
LeftShoulder1  0.0716548 0.0513423 -8.31163
LeftArm  -27.9151 13.9569 -61.5983
LeftForeArm  32.7791 -15.8595 -2.86284
LeftHand  0.0782629 2.37241 3.67532
HEad  -9.36972 -30.8379 5.95557
RightUpLeg  -10.4596 -4.78724 -6.83826
RightLeg  12.5998 5.78825 0.90808
RightFoot  3.27604 -0.000164781 0.394668
RightToes  -37.3613 -0.19429 -0.298997
159
root  3.8778 34.4287 30.1321 5.80208 8.06306 -0.204349
LeftUpLeg  -10.4109 6.8245 -0.486006
LeftLeg  13.7043 1.73649 0.305252
LeftFoot  -1.80668 -0.00938026 -0.0298692
LeftToes  -11.1166 2.60077e-006 -1.42232e-007
Spine  1.61588 3.55869 -4.64472
Spine1  2.86553 7.12259 -8.73656
RightShoulder  0.00449314 4.93535 1.4924
RightArm  -54.5005 27.424 45.2321
RightForeArm  43.3925 75.5222 43.5127
RightHand  3.18454 -11.4336 -30.6502
LeftShoulder1  0.072148 0.0636697 -8.24161
LeftArm  -27.8238 13.8733 -61.6708
LeftForeArm  32.7775 -15.9118 -2.87278
LeftHand  0.0773654 2.38513 3.61383
HEad  -9.16158 -30.5438 5.90673
RightUpLeg  -10.3907 -4.76463 -6.91107
RightLeg  12.5333 5.7291 0.892048
RightFoot  3.30668 -3.75453e-005 0.393524
RightToes  -37.339 -0.194651 -0.299317
160
root  3.90297 34.4295 30.1322 5.81534 8.16051 -0.178006
LeftUpLeg  -10.4181 6.78708 -0.558775
LeftLeg  13.6881 1.69703 0.297789
LeftFoot  -1.79307 -0.00930908 -0.0290914
LeftToes  -11.0247 2.60077e-006 -1.42232e-007
Spine  1.58603 3.59402 -4.65652
Spine1  2.79568 7.19409 -8.7655
RightShoulder  0.00516829 4.81662 1.45835
RightArm  -53.8209 28.5419 45.013
RightForeArm  40.8174 74.7234 40.5953
RightHand  3.10685 -11.0861 -30.838
LeftShoulder1  0.072567 0.0725718 -8.14887
LeftArm  -27.8633 13.7669 -61.7722
LeftForeArm  32.8355 -15.9112 -2.87263
LeftHand  0.0778582 2.38816 3.66037
HEad  -9.01573 -30.2201 5.89006
RightUpLeg  -10.3024 -4.7632 -6.97866
RightLeg  12.3794 5.63045 0.861323
RightFoot  3.38472 8.91283e-005 0.392206
RightToes  -37.3623 -0.195013 -0.299637
161
root  3.92108 34.4304 30.1235 5.81338 8.25676 -0.14844
LeftUpLeg  -10.4588 6.74866 -0.620841
LeftLeg  13.748 1.6439 0.290184
LeftFoot  -1.81599 -0.00924379 -0.0282031
LeftToes  -10.9668 2.60077e-006 -1.42232e-007
Spine  1.57865 3.63638 -4.67048
Spine1  2.76813 7.28224 -8.79913
RightShoulder  0.00573103 4.67084 1.51722
RightArm  -53.1861 29.8091 44.5708
RightForeArm  38.4855 73.7061 37.4338
RightHand  3.07554 -11.149 -30.3712
LeftShoulder1  0.0729041 0.0829922 -8.02033
LeftArm  -27.9496 13.6136 -61.9366
LeftForeArm  32.8266 -15.9203 -2.87437
LeftHand  0.0780399 2.37429 3.66974
HEad  -9.06965 -29.9382 5.94364
RightUpLeg  -10.2566 -4.7361 -7.04072
RightLeg  12.3153 5.50635 0.836129
RightFoot  3.40653 0.000208613 0.390824
RightToes  -37.4441 -0.195376 -0.299955
162
root  3.94632 34.4314 30.1144 5.78684 8.27256 -0.114794
LeftUpLeg  -10.4509 6.72122 -0.69611
LeftLeg  13.7763 1.64919 0.291958
LeftFoot  -1.85063 -0.00919284 -0.027074
LeftToes  -10.8684 2.60077e-006 -1.42232e-007
Spine  1.58434 3.70934 -4.68004
Spine1  2.76457 7.43337 -8.82478
RightShoulder  0.00601557 4.58167 1.56221
RightArm  -52.6699 31.0392 43.9864
RightForeArm  36.2564 72.4412 34.1467
RightHand  3.00036 -11.0173 -29.9983
LeftShoulder1  0.0731516 0.0501928 -7.93907
LeftArm  -28.0455 13.4835 -62.0909
LeftForeArm  32.7997 -15.9566 -2.88131
LeftHand  0.078632 2.37317 3.71411
HEad  -9.08269 -29.6803 5.93732
RightUpLeg  -10.2482 -4.73671 -7.12249
RightLeg  12.3501 5.4949 0.837797
RightFoot  3.4125 0.00031429 0.389485
RightToes  -37.4885 -0.195738 -0.30027
163
root  3.96387 34.4323 30.0999 5.75347 8.31046 -0.105128
LeftUpLeg  -10.4462 6.76179 -0.734293
LeftLeg  13.7865 1.57172 0.27846
LeftFoot  -1.8249 -0.00916466 -0.0255736
LeftToes  -10.8757 2.60077e-006 -1.42232e-007
Spine  1.59258 3.78579 -4.69708
Spine1  2.76471 7.59508 -8.86918
RightShoulder  0.00607693 4.59944 1.50184
RightArm  -52.4159 32.0134 43.619
RightForeArm  34.2827 70.9771 30.9952
RightHand  2.96648 -10.7535 -30.3769
LeftShoulder1  0.0733019 -0.00900835 -7.87101
LeftArm  -28.022 13.346 -62.179
LeftForeArm  32.7733 -15.977 -2.8852
LeftHand  0.0798684 2.26437 3.76293
HEad  -9.09951 -29.4556 5.95854
RightUpLeg  -10.2191 -4.75832 -7.16171
RightLeg  12.3272 5.47238 0.832141
RightFoot  3.48191 0.00039953 0.388299
RightToes  -37.5871 -0.196099 -0.300581
164
root  3.9777 34.433 30.0835 5.73324 8.45391 -0.122823
LeftUpLeg  -10.451 6.71001 -0.741771
LeftLeg  13.7545 1.49216 0.263433
LeftFoot  -1.81574 -0.00918976 -0.0232287
LeftToes  -10.7446 2.60077e-006 -1.42232e-007
Spine  1.60075 3.84626 -4.71452
Spine1  2.76567 7.71964 -8.90922
RightShoulder  0.00607115 4.49977 1.42076
RightArm  -52.6392 32.8715 43.6425
RightForeArm  31.8081 69.463 28.2773
RightHand  2.96202 -10.4127 -31.2931
LeftShoulder1  0.0733475 -0.054242 -7.77991
LeftArm  -27.9315 13.22 -62.2854
LeftForeArm  32.7568 -16.0435 -2.89789
LeftHand  0.0803353 2.26014 3.7863
HEad  -9.14268 -29.3456 6.01249
RightUpLeg  -10.1728 -4.84902 -7.16596
RightLeg  12.2777 5.41471 0.818636
RightFoot  3.52445 0.000457725 0.387374
RightToes  -37.4854 -0.196456 -0.300886
165
root  3.98692 34.4337 30.0684 5.72798 8.65805 -0.126821
LeftUpLeg  -10.4514 6.7067 -0.758922
LeftLeg  13.6682 1.30255 0.227746
LeftFoot  -1.73573 -0.00954305 -0.0157678
LeftToes  -10.8534 2.60077e-006 -1.42232e-007
Spine  1.60061 3.88455 -4.73318
Spine1  2.76541 7.79093 -8.93895
RightShoulder  0.00601046 4.50354 1.31776
RightArm  -52.8707 33.0046 43.431
RightForeArm  29.1929 68.5217 26.8012
RightHand  3.02713 -10.4954 -31.7108
LeftShoulder1  0.0732806 -0.120529 -7.71748
LeftArm  -27.9016 13.1173 -62.3838
LeftForeArm  32.7262 -16.0542 -2.89996
LeftHand  0.0807887 2.27109 3.80932
HEad  -9.18462 -29.3351 6.04292
RightUpLeg  -10.1684 -4.90194 -7.17066
RightLeg  12.3126 5.27474 0.80083
RightFoot  3.56535 0.000482234 0.386818
RightToes  -37.694 -0.19681 -0.301186
